<mxfile host="app.diagrams.net" agent="Mozilla/5.0 (Windows NT 10.0; Win64; x64) AppleWebKit/537.36 (KHTML, like Gecko) Chrome/132.0.0.0 Safari/537.36" version="26.0.11">
  <diagram name="Pagina-1" id="5UYpupnWn7cnAhVvg5Xj">
    <mxGraphModel dx="830" dy="439" grid="1" gridSize="10" guides="1" tooltips="1" connect="1" arrows="1" fold="1" page="1" pageScale="1" pageWidth="827" pageHeight="1169" math="0" shadow="0">
      <root>
        <mxCell id="0" />
        <mxCell id="1" parent="0" />
        <mxCell id="Lw4riBs5LqPL7xzx10Mb-2" value="Utente" style="shape=umlLifeline;perimeter=lifelinePerimeter;whiteSpace=wrap;html=1;container=0;dropTarget=0;collapsible=0;recursiveResize=0;outlineConnect=0;portConstraint=eastwest;newEdgeStyle={&quot;edgeStyle&quot;:&quot;elbowEdgeStyle&quot;,&quot;elbow&quot;:&quot;vertical&quot;,&quot;curved&quot;:0,&quot;rounded&quot;:0};" parent="1" vertex="1">
          <mxGeometry x="65" y="130" width="100" height="300" as="geometry" />
        </mxCell>
        <mxCell id="Lw4riBs5LqPL7xzx10Mb-3" value="" style="html=1;points=[];perimeter=orthogonalPerimeter;outlineConnect=0;targetShapes=umlLifeline;portConstraint=eastwest;newEdgeStyle={&quot;edgeStyle&quot;:&quot;elbowEdgeStyle&quot;,&quot;elbow&quot;:&quot;vertical&quot;,&quot;curved&quot;:0,&quot;rounded&quot;:0};" parent="Lw4riBs5LqPL7xzx10Mb-2" vertex="1">
          <mxGeometry x="45" y="70" width="10" height="190" as="geometry" />
        </mxCell>
        <mxCell id="Lw4riBs5LqPL7xzx10Mb-5" value="GUI" style="shape=umlLifeline;perimeter=lifelinePerimeter;whiteSpace=wrap;html=1;container=0;dropTarget=0;collapsible=0;recursiveResize=0;outlineConnect=0;portConstraint=eastwest;newEdgeStyle={&quot;edgeStyle&quot;:&quot;elbowEdgeStyle&quot;,&quot;elbow&quot;:&quot;vertical&quot;,&quot;curved&quot;:0,&quot;rounded&quot;:0};" parent="1" vertex="1">
          <mxGeometry x="245" y="130" width="100" height="300" as="geometry" />
        </mxCell>
        <mxCell id="Lw4riBs5LqPL7xzx10Mb-6" value="" style="html=1;points=[];perimeter=orthogonalPerimeter;outlineConnect=0;targetShapes=umlLifeline;portConstraint=eastwest;newEdgeStyle={&quot;edgeStyle&quot;:&quot;elbowEdgeStyle&quot;,&quot;elbow&quot;:&quot;vertical&quot;,&quot;curved&quot;:0,&quot;rounded&quot;:0};" parent="Lw4riBs5LqPL7xzx10Mb-5" vertex="1">
          <mxGeometry x="45" y="70" width="10" height="140" as="geometry" />
        </mxCell>
        <mxCell id="Lw4riBs5LqPL7xzx10Mb-7" value="Applicazione (calcolo)" style="shape=umlLifeline;perimeter=lifelinePerimeter;whiteSpace=wrap;html=1;container=0;dropTarget=0;collapsible=0;recursiveResize=0;outlineConnect=0;portConstraint=eastwest;newEdgeStyle={&quot;edgeStyle&quot;:&quot;elbowEdgeStyle&quot;,&quot;elbow&quot;:&quot;vertical&quot;,&quot;curved&quot;:0,&quot;rounded&quot;:0};" parent="1" vertex="1">
          <mxGeometry x="425" y="130" width="100" height="300" as="geometry" />
        </mxCell>
        <mxCell id="Lw4riBs5LqPL7xzx10Mb-8" value="" style="html=1;points=[];perimeter=orthogonalPerimeter;outlineConnect=0;targetShapes=umlLifeline;portConstraint=eastwest;newEdgeStyle={&quot;edgeStyle&quot;:&quot;elbowEdgeStyle&quot;,&quot;elbow&quot;:&quot;vertical&quot;,&quot;curved&quot;:0,&quot;rounded&quot;:0};" parent="Lw4riBs5LqPL7xzx10Mb-7" vertex="1">
          <mxGeometry x="45" y="70" width="10" height="180" as="geometry" />
        </mxCell>
        <mxCell id="Lw4riBs5LqPL7xzx10Mb-15" value="condizione di vittoria" style="html=1;verticalAlign=bottom;endArrow=open;dashed=1;endSize=8;edgeStyle=elbowEdgeStyle;elbow=vertical;curved=0;rounded=0;" parent="1" edge="1">
          <mxGeometry relative="1" as="geometry">
            <mxPoint x="120" y="360" as="targetPoint" />
            <Array as="points">
              <mxPoint x="220" y="360" />
            </Array>
            <mxPoint x="470" y="360" as="sourcePoint" />
          </mxGeometry>
        </mxCell>
        <mxCell id="Lw4riBs5LqPL7xzx10Mb-17" value="Minesweeper" style="text;html=1;align=center;verticalAlign=middle;whiteSpace=wrap;rounded=0;" parent="1" vertex="1">
          <mxGeometry x="222.5" y="70" width="145" height="30" as="geometry" />
        </mxCell>
        <mxCell id="WZkBbWkaDZIlPgAX-vXM-1" value="" style="endArrow=classic;html=1;rounded=0;" edge="1" parent="1">
          <mxGeometry width="50" height="50" relative="1" as="geometry">
            <mxPoint x="120" y="240" as="sourcePoint" />
            <mxPoint x="290" y="240" as="targetPoint" />
          </mxGeometry>
        </mxCell>
        <mxCell id="WZkBbWkaDZIlPgAX-vXM-2" value="" style="endArrow=classic;html=1;rounded=0;" edge="1" parent="1">
          <mxGeometry width="50" height="50" relative="1" as="geometry">
            <mxPoint x="120" y="270" as="sourcePoint" />
            <mxPoint x="290" y="270" as="targetPoint" />
          </mxGeometry>
        </mxCell>
        <mxCell id="WZkBbWkaDZIlPgAX-vXM-8" value="interazione bombe" style="edgeLabel;html=1;align=center;verticalAlign=middle;resizable=0;points=[];" vertex="1" connectable="0" parent="WZkBbWkaDZIlPgAX-vXM-2">
          <mxGeometry x="-0.1059" relative="1" as="geometry">
            <mxPoint x="9" y="-10" as="offset" />
          </mxGeometry>
        </mxCell>
        <mxCell id="WZkBbWkaDZIlPgAX-vXM-3" value="selezione difficoltÃ " style="text;html=1;align=center;verticalAlign=middle;resizable=0;points=[];autosize=1;strokeColor=none;fillColor=none;" vertex="1" parent="1">
          <mxGeometry x="150" y="210" width="120" height="30" as="geometry" />
        </mxCell>
        <mxCell id="WZkBbWkaDZIlPgAX-vXM-4" value="" style="endArrow=classic;html=1;rounded=0;" edge="1" parent="1" target="Lw4riBs5LqPL7xzx10Mb-8">
          <mxGeometry width="50" height="50" relative="1" as="geometry">
            <mxPoint x="300" y="238" as="sourcePoint" />
            <mxPoint x="650" y="238" as="targetPoint" />
          </mxGeometry>
        </mxCell>
        <mxCell id="WZkBbWkaDZIlPgAX-vXM-5" value="richiesta griglia" style="text;html=1;align=center;verticalAlign=middle;resizable=0;points=[];autosize=1;strokeColor=none;fillColor=none;" vertex="1" parent="1">
          <mxGeometry x="330" y="210" width="100" height="30" as="geometry" />
        </mxCell>
        <mxCell id="WZkBbWkaDZIlPgAX-vXM-15" value="" style="endArrow=none;dashed=1;html=1;rounded=0;strokeColor=default;targetPerimeterSpacing=-1;startArrow=classic;startFill=1;" edge="1" parent="1" source="Lw4riBs5LqPL7xzx10Mb-6" target="Lw4riBs5LqPL7xzx10Mb-8">
          <mxGeometry width="50" height="50" relative="1" as="geometry">
            <mxPoint x="330" y="330" as="sourcePoint" />
            <mxPoint x="380" y="280" as="targetPoint" />
          </mxGeometry>
        </mxCell>
        <mxCell id="WZkBbWkaDZIlPgAX-vXM-16" value="calcolo bombe" style="edgeLabel;html=1;align=center;verticalAlign=middle;resizable=0;points=[];" vertex="1" connectable="0" parent="WZkBbWkaDZIlPgAX-vXM-15">
          <mxGeometry x="-0.2188" y="1" relative="1" as="geometry">
            <mxPoint x="14" y="-9" as="offset" />
          </mxGeometry>
        </mxCell>
      </root>
    </mxGraphModel>
  </diagram>
</mxfile>
